<svg width="20" height="20" viewBox="0 0 20 20" fill="none" xmlns="http://www.w3.org/2000/svg">
<g clip-path="url(#clip0_3389_38)">
<path d="M15.8333 0H4.16667C1.86667 0 0 1.86667 0 4.16667V15.8333C0 18.1333 1.86667 20 4.16667 20H15.8333C18.1333 20 20 18.1333 20 15.8333V4.16667C20 1.86667 18.1333 0 15.8333 0Z" fill="#101010"/>
<g clip-path="url(#clip1_3389_38)">
<path d="M16.6666 5.99984C16.6666 5.2665 16.0666 4.6665 15.3333 4.6665H4.66665C3.93331 4.6665 3.33331 5.2665 3.33331 5.99984V13.9998C3.33331 14.7332 3.93331 15.3332 4.66665 15.3332H15.3333C16.0666 15.3332 16.6666 14.7332 16.6666 13.9998V5.99984ZM15.3333 5.99984L9.99998 9.33317L4.66665 5.99984H15.3333ZM15.3333 13.9998H4.66665V7.33317L9.99998 10.6665L15.3333 7.33317V13.9998Z" fill="#F2F2F2"/>
</g>
</g>
<defs>
<clipPath id="clip0_3389_38">
<rect width="20" height="20" fill="white"/>
</clipPath>
<clipPath id="clip1_3389_38">
<rect width="13.3333" height="10.6667" fill="white" transform="translate(3.33331 4.6665)"/>
</clipPath>
</defs>
</svg>
