<svg width="20" height="20" viewBox="0 0 20 20" fill="none" xmlns="http://www.w3.org/2000/svg">
<g clip-path="url(#clip0_3389_37)">
<path d="M15.8333 0H4.16667C1.86667 0 0 1.86667 0 4.16667V15.8333C0 18.1333 1.86667 20 4.16667 20H15.8333C18.1333 20 20 18.1333 20 15.8333V4.16667C20 1.86667 18.1333 0 15.8333 0Z" fill="#101010"/>
<path d="M10 3C9.08075 3 8.17049 3.18556 7.32122 3.54607C6.47194 3.90659 5.70026 4.43501 5.05025 5.10115C3.7375 6.4465 3 8.27118 3 10.1738C3 13.3446 5.009 16.0348 7.788 16.9889C8.138 17.0463 8.25 16.8239 8.25 16.6302V15.4178C6.311 15.8483 5.898 14.4565 5.898 14.4565C5.576 13.6244 5.121 13.402 5.121 13.402C4.484 12.9572 5.17 12.9716 5.17 12.9716C5.87 13.0218 6.241 13.7105 6.241 13.7105C6.85 14.8009 7.879 14.4781 8.278 14.3059C8.341 13.8396 8.523 13.5239 8.719 13.3446C7.165 13.1653 5.534 12.5483 5.534 9.8151C5.534 9.01881 5.8 8.38034 6.255 7.871C6.185 7.69166 5.94 6.94558 6.325 5.97712C6.325 5.97712 6.913 5.78343 8.25 6.70885C8.803 6.55103 9.405 6.47211 10 6.47211C10.595 6.47211 11.197 6.55103 11.75 6.70885C13.087 5.78343 13.675 5.97712 13.675 5.97712C14.06 6.94558 13.815 7.69166 13.745 7.871C14.2 8.38034 14.466 9.01881 14.466 9.8151C14.466 12.5555 12.828 13.1581 11.267 13.3374C11.519 13.5598 11.75 13.9974 11.75 14.6646V16.6302C11.75 16.8239 11.862 17.0535 12.219 16.9889C14.998 16.0276 17 13.3446 17 10.1738C17 9.23171 16.8189 8.29886 16.4672 7.4285C16.1154 6.55813 15.5998 5.7673 14.9497 5.10115C14.2997 4.43501 13.5281 3.90659 12.6788 3.54607C11.8295 3.18556 10.9193 3 10 3Z" fill="white"/>
</g>
<defs>
<clipPath id="clip0_3389_37">
<rect width="20" height="20" fill="white"/>
</clipPath>
</defs>
</svg>
