<svg width="20" height="20" viewBox="0 0 20 20" fill="none" xmlns="http://www.w3.org/2000/svg">
<path d="M15.8333 0H4.16667C1.86667 0 0 1.86667 0 4.16667V15.8333C0 18.1333 1.86667 20 4.16667 20H15.8333C18.1333 20 20 18.1333 20 15.8333V4.16667C20 1.86667 18.1333 0 15.8333 0ZM6.66667 15.8333H4.16667V6.66667H6.66667V15.8333ZM5.41667 5.60833C4.60833 5.60833 3.95833 4.95 3.95833 4.14167C3.95833 3.33333 4.60833 2.66667 5.41667 2.66667C6.225 2.66667 6.875 3.325 6.875 4.13333C6.875 4.94167 6.225 5.60833 5.41667 5.60833ZM16.6667 15.8333H14.1667V11.1667C14.1667 8.35833 10.8333 8.575 10.8333 11.1667V15.8333H8.33333V6.66667H10.8333V8.14167C12 5.98333 16.6667 5.825 16.6667 10.2083V15.8333Z" fill="black"/>
</svg>
